<?xml version="1.0" encoding="UTF-8" standalone="no"?>
<svg
   xmlns:dc="http://purl.org/dc/elements/1.1/"
   xmlns:cc="http://creativecommons.org/ns#"
   xmlns:rdf="http://www.w3.org/1999/02/22-rdf-syntax-ns#"
   xmlns:svg="http://www.w3.org/2000/svg"
   xmlns="http://www.w3.org/2000/svg"
   viewBox="0 0 733.33331 196"
   height="46"
   width="170"
   xml:space="preserve"
   version="1.1"
   id="svg2"><metadata
     id="metadata8"><rdf:RDF><cc:Work
         rdf:about=""><dc:format>image/svg+xml</dc:format><dc:type
           rdf:resource="http://purl.org/dc/dcmitype/StillImage" /></cc:Work></rdf:RDF></metadata><defs
     id="defs6" /><g
     transform="matrix(1.3333333,0,0,-1.3333333,0,196)"
     id="g10"><g
       transform="scale(0.1)"
       id="g12"><path
         id="path14"
         style="fill:#51b8c3;fill-opacity:1;fill-rule:nonzero;stroke:none"
         d="m 792.004,591.461 c 0,53.465 33.43,99.012 80.281,117.441 l 0,761.098 -214.176,0 0,-454.86 c 46.93,-18.499 80.282,-63.878 80.282,-117.429 0,-53.488 -33.352,-99.012 -80.282,-117.375 l 0,-535.336 214.176,0 0,229.008 c -46.851,18.515 -80.281,63.887 -80.281,117.453" /><path
         id="path16"
         style="fill:#dd097b;fill-opacity:1;fill-rule:nonzero;stroke:none"
         d="m 485.934,897.711 c 0,53.551 33.429,98.93 80.293,117.429 l 0,209.88 -214.258,0 0,-669.235 c 46.933,-18.457 80.367,-63.887 80.367,-117.465 0,-53.55 -33.434,-99.011 -80.367,-117.359 l 0,-320.961 214.258,0 0,780.336 c -46.864,18.363 -80.293,63.887 -80.293,117.375" /><path
         id="path18"
         style="fill:#77c82b;fill-opacity:1;fill-rule:nonzero;stroke:none"
         d="m 179.871,438.32 c 0,53.578 33.274,99.008 80.293,117.465 l 0,791.765 C 111.262,1313.85 0,1180.98 0,1021.9 l 0,-890.939 260.164,0 0,190 c -47.019,18.348 -80.293,63.891 -80.293,117.359" /><path
         id="path20"
         style="fill:#e5681a;fill-opacity:1;fill-rule:nonzero;stroke:none"
         d="m 964.086,1339.12 0,-630.218 c 47.024,-18.429 80.374,-63.976 80.374,-117.441 0,-53.566 -33.35,-98.938 -80.374,-117.453 l 0,-351.469 C 1112.99,156.07 1224.34,289.02 1224.34,448.191 l 0,890.929 -260.254,0" /><path
         id="path22"
         style="fill:#29353d;fill-opacity:1;fill-rule:nonzero;stroke:none"
         d="m 1818.12,536.148 266.03,0 c 24.22,0 42.57,8.504 55.12,25.43 12.62,17 18.89,40.203 18.89,69.688 0,29.48 -6.35,52.773 -19.05,69.687 -12.79,16.922 -31.05,25.418 -54.96,25.418 l -266.03,0 0,-190.223 z m 0,339.543 248.88,0 c 19.53,0 35.18,6.836 46.94,20.344 11.82,13.508 17.7,32.504 17.7,56.817 0,24.406 -5.88,43.472 -17.7,57.128 -11.76,13.75 -27.41,20.59 -46.94,20.59 l -248.88,0 0,-154.879 z m -175.43,251.669 c 0,14.37 4.36,26.77 13.02,37.1 8.74,10.34 19.14,15.5 31.21,15.5 l 378.17,0 c 42.49,0 81.16,-7 116.11,-20.82 34.85,-13.91 64.56,-38.3 89.02,-73.19 24.54,-34.88 36.77,-78.02 36.77,-129.52 0,-56.817 -20.89,-105.45 -62.82,-145.981 59.88,-37.828 89.66,-99.332 89.34,-184.586 0,-75.976 -23.82,-134.843 -71.39,-176.492 -47.65,-41.723 -106.02,-62.543 -175.11,-62.543 l -400.09,0 c -12.07,0 -22.47,5.012 -31.21,15.192 -8.66,10.171 -13.02,22.402 -13.02,36.781 l 0,688.559" /><path
         id="path24"
         style="fill:#29353d;fill-opacity:1;fill-rule:nonzero;stroke:none"
         d="m 2420.95,420.359 0,522.243 c 0,9.937 2.7,17.96 8.18,24.234 5.4,6.195 12.14,9.293 20.17,9.293 l 104.27,0 c 8.33,0 15.16,-3.168 20.41,-9.609 5.32,-6.438 7.95,-14.387 7.95,-23.918 l 0,-522.243 c 0,-9.847 -2.71,-17.949 -8.19,-24.211 -5.4,-6.218 -12.14,-9.32 -20.17,-9.32 l -104.27,0 c -8.33,0 -15.18,3.102 -20.41,9.32 -5.32,6.262 -7.94,14.364 -7.94,24.211 z m -1.83,686.341 0,19.22 c 0,20.03 4.68,35.84 14.13,47.52 9.45,11.69 22.63,17.57 39.32,17.57 l 57.73,0 c 16.44,0 29.47,-5.81 39.08,-17.24 9.6,-11.54 14.37,-27.5 14.37,-47.85 l 0,-19.22 c 0,-19.96 -4.69,-35.84 -14.15,-47.52 -9.45,-11.68 -22.55,-17.48 -39.3,-17.48 l -57.73,0 c -16.45,0 -29.46,5.8 -39.08,17.48 -9.6,11.68 -14.37,27.56 -14.37,47.52" /><path
         id="path26"
         style="fill:#29353d;fill-opacity:1;fill-rule:nonzero;stroke:none"
         d="m 2830.33,689.594 c 0,-62.539 8.42,-108.231 25.17,-136.934 16.84,-28.672 44.32,-43.047 82.52,-43.047 29.22,0 66.23,16.535 110.93,49.66 l 0,288.84 c -40.01,15.102 -73.77,22.418 -101.08,22.09 -42.65,0 -72.83,-14.301 -90.69,-42.824 -17.87,-28.531 -26.85,-74.465 -26.85,-137.785 z m -160.9,0 c 0,101.711 22.09,179.504 66.32,233.465 44.24,54.031 103.72,80.971 178.51,80.971 39.49,0 84.35,-9.378 134.69,-28.214 l 0,169.814 c 0,9.94 2.79,18.19 8.19,24.64 5.4,6.43 12.14,9.69 20.26,9.69 l 103.71,0 c 8.34,0 15.24,-3.26 20.72,-9.69 5.4,-6.45 8.11,-14.7 8.11,-24.64 l 0,-725.11 c 0,-9.93 -2.71,-18.032 -8.11,-24.309 -5.48,-6.281 -12.38,-9.383 -20.72,-9.383 l -89.35,0 c -8.34,0 -15.16,3.254 -20.4,9.711 -5.33,6.512 -7.95,14.52 -7.95,24.152 l 0,17.239 c -48.44,-41.782 -102.2,-62.539 -161.36,-62.129 -68.93,0 -125,27.168 -168.05,81.597 -43.05,54.434 -64.57,131.836 -64.57,232.196" /><path
         id="path28"
         style="fill:#29353d;fill-opacity:1;fill-rule:nonzero;stroke:none"
         d="m 3299.75,825.395 c 0,119.515 80.76,179.035 242.3,178.635 169.94,0 254.91,-52.925 254.91,-158.694 0,-10.008 -2.61,-18.113 -7.86,-24.395 -5.33,-6.277 -12.15,-9.375 -20.48,-9.375 l -69.42,0 c -22.39,0 -40.25,9.778 -53.6,29.325 -17.07,25.027 -47.97,37.582 -92.68,37.582 -61.78,0 -92.59,-17.633 -92.28,-53.078 0,-16.606 12.08,-30.438 36.14,-41.473 24.14,-11.055 53.52,-20.754 88.16,-29.016 34.69,-8.328 69.24,-18.914 103.63,-31.777 34.45,-12.969 63.69,-33.535 87.75,-61.746 23.98,-28.203 36.04,-63.809 36.04,-106.965 0,-119.496 -85.44,-179.027 -256.34,-178.617 -170.25,0 -255.4,52.679 -255.4,158.129 0,9.933 2.71,18.183 8.19,24.629 5.4,6.437 12.23,9.679 20.56,9.679 l 69.17,0 c 22.25,0 40.03,-10 53.29,-29.863 17.08,-25.117 48.05,-37.434 92.76,-37.109 71.23,0 106.8,17.714 106.8,53.152 0,16.535 -12.06,30.352 -36.12,41.484 -24.06,11.055 -53.53,20.899 -88.4,29.563 -34.78,8.66 -69.33,19.383 -103.48,32.109 -34.22,12.703 -63.36,33.203 -87.5,61.66 -24.06,28.368 -36.14,63.731 -36.14,106.161" /><path
         id="path30"
         style="fill:#29353d;fill-opacity:1;fill-rule:nonzero;stroke:none"
         d="m 4058.96,833.734 c -19.23,-29.871 -28.91,-77.636 -28.91,-143.261 0,-65.645 9.68,-113.563 28.91,-143.836 19.3,-30.196 49.63,-45.371 91.17,-45.371 41.44,0 71.86,15.175 91.31,45.371 19.38,30.273 29.16,78.191 29.16,143.836 0,65.625 -9.78,113.39 -29.16,143.261 -19.45,29.805 -49.87,44.739 -91.31,44.739 -41.54,0 -71.87,-14.934 -91.17,-44.739 z M 3941.51,455.41 c -48.29,53.082 -72.35,131.363 -72.35,234.731 0,103.464 24.06,181.656 72.35,234.507 48.2,52.918 117.75,79.382 208.62,79.382 90.84,0 160.48,-26.464 208.85,-79.382 48.36,-52.851 72.59,-131.043 72.59,-234.507 0,-103.368 -24.23,-181.649 -72.59,-234.731 -48.37,-53.07 -118.01,-79.609 -208.85,-79.609 -90.87,0 -160.42,26.539 -208.62,79.609" /><path
         id="path32"
         style="fill:#29353d;fill-opacity:1;fill-rule:nonzero;stroke:none"
         d="m 4678.06,532.262 c 40.04,-15.11 73.63,-22.649 100.94,-22.649 42.49,0 72.67,14.375 90.45,43.047 17.87,28.703 26.78,74.719 26.78,138.039 0,62.625 -8.42,108.149 -25.36,136.68 -16.9,28.523 -44.22,42.824 -82.1,42.824 -29.15,0 -66.07,-16.598 -110.71,-49.73 l 0,-288.211 z m -160.97,-298.09 0,724.558 c 0,9.942 2.71,18.125 8.18,24.555 5.4,6.434 12.16,9.699 20.24,9.699 l 89.75,0 c 8.42,0 15.17,-3.265 20.5,-9.699 5.23,-6.43 7.86,-14.613 7.86,-24.555 l 0,-16.605 c 48.45,41.641 102.12,62.305 160.96,61.905 68.93,0 124.92,-27.175 168.05,-81.53 43.05,-54.273 64.56,-131.586 64.56,-231.801 0,-101.867 -22.08,-179.824 -66.15,-233.859 -44.15,-54.031 -103.64,-81.039 -178.54,-81.039 -39.37,0 -84.16,9.371 -134.44,28.277 l 0,-169.906 c 0,-9.922 -2.68,-18.184 -8.08,-24.613 -5.48,-6.45 -12.25,-9.688 -20.26,-9.688 l -104.21,0 c -8.41,0 -15.23,3.238 -20.48,9.688 -5.31,6.429 -7.94,14.613 -7.94,24.613" /><path
         id="path34"
         style="fill:#29353d;fill-opacity:1;fill-rule:nonzero;stroke:none"
         d="m 5147.41,624.672 0,520.958 c 0,9.94 2.7,18.19 8.18,24.64 5.4,6.43 12.15,9.69 20.25,9.69 l 104.19,0 c 8.33,0 15.16,-3.26 20.39,-9.69 5.35,-6.45 7.95,-14.63 7.95,-24.56 l 0,-184.272 129.78,0 c 8.42,0 15.24,-3.102 20.48,-9.465 5.23,-6.266 7.95,-14.379 7.95,-24.391 l 0,-66.113 c 0,-10.008 -2.78,-18.117 -8.2,-24.391 -5.4,-6.277 -12.13,-9.457 -20.23,-9.457 l -129.78,0 0,-205.418 c 0,-38.066 7.47,-67.453 22.33,-88.215 14.92,-20.644 34.7,-31.062 59.55,-31.062 8.34,0 19.54,1.113 33.51,3.347 13.9,2.219 23.99,3.34 30.18,3.34 l 17.24,0 c 8.41,0 15.32,-3.015 20.72,-9.16 5.4,-6.113 8.1,-13.984 8.1,-23.66 l 0,-57.531 c 0,-8.203 -2.7,-15.332 -8.1,-21.461 -5.4,-6.129 -12.31,-9.86 -20.72,-11.281 -31.6,-7.161 -72.9,-10.719 -123.73,-10.719 -133.34,-0.41 -200.04,82.558 -200.04,248.871" /></g></g></svg>